# xmcd
#
# Track frame offsets:
#	150
#	15359
#	30665
#	45359
#	66981
#	81128
#	93907
#	108257
#	120446
#	139592
#	160523
#	172878
#	195783
#	208707
#	225913
#
# Disc length: 3233 seconds
# Revision: 1
# Processed by: cddbd v1.5.2PL0 Copyright (c) Steve Scherf et al.
# Submitted via: dBpowerAMP V12.0
#
DISCID=a10c9f0f
DTITLE=Eric Church - [2009] Carolina
DYEAR=2009
DGENRE=Country
TTITLE0=Ain't Killed Me Yet
TTITLE1=Lotta Boot Left To Fill
TTITLE2=Young And Wild
TTITLE3=Where She Told Me To Go
TTITLE4=Longer Gone
TTITLE5=Love Your Love The Most
TTITLE6=Smoke A Little Smoke
TTITLE7=Without You Here
TTITLE8=You Make It Look So Easy
TTITLE9=Carolina
TTITLE10=Hell On The Heart
TTITLE11=Those I've Loved
TTITLE12=My Heart's Got A Memory (bonus track)
TTITLE13=Faster Than My Angels Can Fly (bonus track)
TTITLE14=His Kind Of Money (My Kind Of Love) (bonus track)
EXTD=
EXTT0=
EXTT1=
EXTT2=
EXTT3=
EXTT4=
EXTT5=
EXTT6=
EXTT7=
EXTT8=
EXTT9=
EXTT10=
EXTT11=
EXTT12=
EXTT13=
EXTT14=
PLAYORDER=
